<?xml version="1.0" encoding="UTF-8"?>
<svg version="1.1" xmlns="http://www.w3.org/2000/svg" width="64" height="64">
<path d="M0 0 C0.82450653 -0.0159874 1.64901306 -0.03197479 2.49850464 -0.04844666 C3.82979904 -0.05649071 3.82979904 -0.05649071 5.18798828 -0.06469727 C6.10411896 -0.07372574 7.02024963 -0.08275421 7.96414185 -0.09205627 C9.90249359 -0.10656437 11.84089436 -0.1154469 13.77929688 -0.11914062 C16.74058848 -0.13103239 19.69979309 -0.18020744 22.66064453 -0.23071289 C24.54474895 -0.24017778 26.42886616 -0.2474125 28.31298828 -0.25219727 C29.19646942 -0.27172958 30.07995056 -0.2912619 30.99020386 -0.31138611 C35.45660246 -0.27871254 37.27781596 -0.17981342 40.86889648 2.70385742 C41.5336499 3.56269531 42.19840332 4.4215332 42.88330078 5.30639648 C43.47755859 6.03213867 44.07181641 6.75788086 44.68408203 7.50561523 C49.28244948 15.07450428 49.46252127 22.15830427 49.50830078 30.86889648 C49.51901611 32.03573975 49.52973145 33.20258301 49.54077148 34.40478516 C49.40026958 42.80606266 49.40026958 42.80606266 47.19467163 44.94068909 C44.3684626 46.61059618 42.62255166 46.68656481 39.35205078 46.69458008 C38.24410156 46.70403656 37.13615234 46.71349304 35.99462891 46.72323608 C34.80289063 46.71716339 33.61115234 46.7110907 32.38330078 46.70483398 C31.15546875 46.70770416 29.92763672 46.71057434 28.66259766 46.71353149 C26.06688984 46.71557279 23.47116666 46.71003841 20.87548828 46.69750977 C16.89857643 46.68145814 12.92268096 46.6973574 8.94580078 46.71655273 C6.4249652 46.71457032 3.90413025 46.71072667 1.38330078 46.70483398 C0.1915625 46.71090668 -1.00017578 46.71697937 -2.22802734 46.72323608 C-3.33597656 46.7137796 -4.44392578 46.70432312 -5.58544922 46.69458008 C-6.55933594 46.6921933 -7.53322266 46.68980652 -8.53662109 46.68734741 C-11.55679933 46.24141529 -12.93370351 45.41282696 -15.11669922 43.30639648 C-16.05463647 39.28824176 -15.87674602 35.17156808 -15.86669922 31.05639648 C-15.86710205 29.88592773 -15.86750488 28.71545898 -15.86791992 27.50952148 C-15.61068566 17.53462519 -13.33815304 10.10997909 -7.11669922 2.30639648 C-4.07509539 0.2786606 -3.42660158 0.05033025 0 0 Z M-3.37695312 9.05249023 C-5.14178667 11.80650209 -6.11669922 14.02133136 -6.11669922 17.30639648 C-5.21306641 17.30897461 -4.30943359 17.31155273 -3.37841797 17.31420898 C0.13359993 17.42935711 3.43441307 17.62362176 6.88330078 18.30639648 C8.94580078 21.18139648 8.94580078 21.18139648 9.88330078 24.30639648 C12.21356943 26.71701922 13.50126748 27.24136954 16.82080078 27.80639648 C20.93632616 27.13447397 22.27963698 25.48865224 24.88330078 22.30639648 C25.24294922 21.25452148 25.24294922 21.25452148 25.60986328 20.18139648 C26.88330078 18.30639648 26.88330078 18.30639648 29.92236328 17.69702148 C31.69740234 17.62741211 31.69740234 17.62741211 33.50830078 17.55639648 C34.69681641 17.49967773 35.88533203 17.44295898 37.10986328 17.38452148 C38.48271484 17.34584961 38.48271484 17.34584961 39.88330078 17.30639648 C37.40830078 12.35639648 37.40830078 12.35639648 34.88330078 7.30639648 C29.84813369 7.10820658 24.81524672 6.96328425 19.77709961 6.86694336 C18.06478325 6.82677931 16.35274015 6.77223251 14.64135742 6.70288086 C5.12034249 5.89018818 5.12034249 5.89018818 -3.37695312 9.05249023 Z " fill="#000000" transform="translate(15.11669921875,8.693603515625)"/>
</svg>
